# 3ds Max Wavefront OBJ Exporter v0.97b - (c)2007 guruware
# File Created: 15.08.2015 09:23:02

mtllib base.mtl

#
# object Sphere001
#

v  -0.002620 0.000044 1.871957
v  0.018634 0.984245 1.874647
v  -0.708354 0.690749 1.876367
v  -0.986822 0.021298 1.874647
v  -0.693325 -0.705690 1.876367
v  -0.023875 -0.984157 1.874647
v  0.703113 -0.690661 1.876367
v  0.981581 -0.021211 1.874647
v  0.688085 0.705777 1.876367
v  -0.013248 1.404280 0.889147
v  -0.982820 1.010302 0.890868
v  -1.406856 -0.010583 0.889147
v  -1.012878 -0.980156 0.890868
v  0.008007 -1.404192 0.889147
v  0.977579 -1.010214 0.890868
v  1.401616 0.010671 0.889147
v  1.007638 0.980243 0.890868
v  -0.002621 2.658433 0.329845
v  -1.882385 1.879809 0.329845
v  -2.661010 0.000044 0.329845
v  -1.882385 -1.879721 0.329845
v  -0.002620 -2.658345 0.329845
v  1.877144 -1.879721 0.329845
v  2.655768 0.000043 0.329845
v  1.877145 1.879808 0.329845
v  -0.002620 0.000044 -0.162783
v  -1.882385 1.879809 -0.149098
v  -0.002621 2.658433 -0.149098
v  -2.661010 0.000044 -0.149098
v  -1.882385 -1.879721 -0.149098
v  -0.002620 -2.658345 -0.149098
v  1.877144 -1.879721 -0.149098
v  2.655768 0.000043 -0.149098
v  1.877145 1.879808 -0.149098
v  -1.279578 0.963253 2.061068
v  -1.583428 0.232525 2.059348
v  -0.965829 -1.276914 2.061068
v  -0.235102 -1.580763 2.059348
v  1.274337 -0.963165 2.061068
v  1.578187 -0.232438 2.059348
v  0.960589 1.277002 2.061068
v  0.229861 1.580851 2.059347
v  0.261743 1.981507 1.504096
v  -1.585428 1.224015 1.505816
v  -1.984083 0.264407 1.504096
v  -1.226591 -1.582764 1.505816
v  -0.266983 -1.981419 1.504096
v  1.580187 -1.223928 1.505816
v  1.978842 -0.264320 1.504096
v  1.221352 1.582851 1.505816
v  -1.641518 1.135000 3.041354
v  -1.415323 0.908804 3.038388
v  -1.961408 0.362718 3.041355
v  -1.641518 0.362718 3.038388
v  -1.137577 -1.638855 3.041355
v  -0.911380 -1.412658 3.038388
v  -0.365294 -1.958744 3.041355
v  -0.365295 -1.638854 3.038388
v  1.636278 -1.134913 3.041354
v  1.410082 -0.908716 3.038388
v  1.956168 -0.362631 3.041354
v  1.636278 -0.362631 3.038388
v  1.132337 1.638942 3.041354
v  0.906140 1.412746 3.038387
v  0.360054 1.958832 3.041354
v  0.360054 1.638943 3.038387
v  -1.659889 0.671698 4.329115
v  -0.674274 -1.657224 4.329116
v  1.654649 -0.671611 4.329115
v  0.669034 1.657313 4.329114
# 70 vertices

vn 0.003500 -0.002809 0.999990
vn 0.002654 -0.003674 0.999990
vn 0.002809 0.003500 0.999990
vn 0.003674 0.002654 0.999990
vn -0.003500 0.002809 0.999990
vn -0.002654 0.003674 0.999990
vn -0.002809 -0.003500 0.999990
vn -0.003674 -0.002654 0.999990
vn -0.347297 0.858949 0.376287
vn -0.858948 -0.347297 0.376287
vn 0.347297 -0.858949 0.376287
vn 0.858949 0.347297 0.376287
vn -0.166065 0.404844 0.899180
vn -0.400957 0.165709 0.900985
vn -0.404844 -0.166065 0.899179
vn -0.165709 -0.400957 0.900985
vn 0.166065 -0.404844 0.899179
vn 0.400957 -0.165710 0.900985
vn 0.404844 0.166064 0.899179
vn 0.165709 0.400957 0.900985
vn -0.002132 0.005148 -0.999984
vn -0.005148 0.002132 -0.999984
vn -0.005148 -0.002132 -0.999985
vn -0.002132 -0.005148 -0.999984
vn 0.002132 -0.005148 -0.999984
vn 0.005148 -0.002132 -0.999984
vn 0.005148 0.002132 -0.999984
vn 0.002132 0.005148 -0.999984
vn 0.258164 -0.109726 0.959850
vn 0.109726 0.258164 0.959850
vn -0.258164 0.109726 0.959850
vn -0.109726 -0.258164 0.959850
vn -0.945510 0.287369 0.153069
vn 0.465377 0.871777 0.153068
vn -0.640171 0.267176 -0.720276
vn -0.287368 -0.945510 0.153068
vn -0.871777 0.465376 0.153068
vn -0.267176 -0.640171 -0.720276
vn 0.945510 -0.287368 0.153068
vn -0.465377 -0.871777 0.153069
vn 0.640171 -0.267177 -0.720276
vn 0.287369 0.945510 0.153068
vn 0.871777 -0.465377 0.153069
vn 0.267177 0.640171 -0.720276
vn 0.618789 0.780177 0.091781
vn -0.923596 0.383202 -0.011203
vn -0.111490 -0.989833 0.088317
vn 0.918350 -0.381378 0.105756
vn -0.780176 0.618790 0.091781
vn -0.383202 -0.923597 -0.011203
vn 0.989833 -0.111490 0.088317
vn 0.381378 0.918350 0.105755
vn -0.618790 -0.780176 0.091781
vn 0.923596 -0.383202 -0.011204
vn 0.111491 0.989833 0.088317
vn -0.918349 0.381379 0.105756
vn 0.780176 -0.618791 0.091781
vn 0.383202 0.923596 -0.011203
vn -0.989833 0.111490 0.088317
vn -0.381378 -0.918350 0.105756
vn 0.685373 0.682027 0.255153
vn -0.916802 0.379752 0.123546
vn 0.002160 -0.972514 0.232835
vn 0.918852 -0.380600 0.104188
vn -0.682027 0.685373 0.255152
vn -0.379751 -0.916802 0.123547
vn 0.972514 0.002160 0.232835
vn 0.380601 0.918851 0.104187
vn -0.685373 -0.682027 0.255152
vn 0.916802 -0.379752 0.123545
vn -0.002158 0.972514 0.232836
vn -0.918851 0.380602 0.104188
vn 0.682025 -0.685375 0.255152
vn 0.379752 0.916802 0.123546
vn -0.972514 -0.002160 0.232835
vn -0.380601 -0.918851 0.104188
vn -0.382683 0.923880 0.000000
vn -0.923880 0.382683 0.000000
vn -0.923879 -0.382683 0.000000
vn -0.382683 -0.923880 0.000000
vn 0.382683 -0.923880 0.000000
vn 0.923879 -0.382684 0.000000
vn 0.923880 0.382683 0.000000
vn 0.382684 0.923879 0.000000
# 84 vertex normals

vt 0.500000 0.500000 0.457258
vt 0.347572 0.571368 0.457803
vt 0.343204 0.437399 0.458151
vt 0.428632 0.347572 0.457803
vt 0.562601 0.343204 0.458151
vt 0.652428 0.428632 0.457803
vt 0.656796 0.562601 0.458151
vt 0.571368 0.652428 0.457803
vt 0.437399 0.656796 0.458151
vt 0.428632 0.457803 0.347572
vt 0.404578 0.258370 0.279687
vt 0.583426 0.258718 0.274260
vt 0.562601 0.458151 0.343204
vt 0.428632 0.457803 0.652428
vt 0.404578 0.258370 0.720313
vt 0.583426 0.258718 0.725740
vt 0.562601 0.458151 0.656796
vt 0.279687 0.595422 0.258370
vt 0.084312 0.683792 0.145186
vt 0.076104 0.336025 0.145186
vt 0.274260 0.416574 0.258718
vt 0.316208 0.084312 0.145186
vt 0.404578 0.279687 0.258370
vt 0.663975 0.076104 0.145186
vt 0.583426 0.274260 0.258718
vt 0.915688 0.316208 0.145186
vt 0.720313 0.404578 0.258370
vt 0.923896 0.663975 0.145186
vt 0.725740 0.583426 0.258718
vt 0.683792 0.915688 0.145186
vt 0.595422 0.720313 0.258370
vt 0.336025 0.923896 0.145186
vt 0.416574 0.725740 0.258718
vt 0.500000 0.500000 0.045494
vt 0.923896 0.336025 0.048263
vt 0.915688 0.683792 0.048263
vt 0.683792 0.084312 0.048263
vt 0.336025 0.076104 0.048263
vt 0.084312 0.316208 0.048263
vt 0.076104 0.663975 0.048263
vt 0.316208 0.915688 0.048263
vt 0.663975 0.923896 0.048263
vt 0.261100 0.366917 0.495528
vt 0.354356 0.268885 0.495180
vt 0.633083 0.261100 0.495528
vt 0.731115 0.354356 0.495180
vt 0.738900 0.633083 0.495528
vt 0.645644 0.731115 0.495180
vt 0.366917 0.738900 0.495528
vt 0.268885 0.645644 0.495180
vt 0.279687 0.258370 0.595422
vt 0.347572 0.457803 0.571368
vt 0.268885 0.495180 0.645644
vt 0.208439 0.382815 0.678330
vt 0.656796 0.458151 0.437399
vt 0.725740 0.258718 0.416574
vt 0.800820 0.383163 0.337120
vt 0.738900 0.495528 0.366917
vt 0.725740 0.416574 0.258718
vt 0.595422 0.279687 0.258370
vt 0.678329 0.208439 0.382815
vt 0.800820 0.337120 0.383163
vt 0.279687 0.258370 0.404578
vt 0.347572 0.457803 0.428632
vt 0.268885 0.495180 0.354356
vt 0.208439 0.382815 0.321671
vt 0.656796 0.458151 0.562601
vt 0.725740 0.258718 0.583426
vt 0.800820 0.383163 0.662880
vt 0.738900 0.495528 0.633083
vt 0.416574 0.274260 0.258718
vt 0.279687 0.404578 0.258370
vt 0.208439 0.321671 0.382815
vt 0.337120 0.199180 0.383163
vt 0.274260 0.583426 0.258718
vt 0.404578 0.720313 0.258370
vt 0.321670 0.791561 0.382815
vt 0.199180 0.662880 0.383163
vt 0.583426 0.725740 0.258718
vt 0.720313 0.595422 0.258370
vt 0.791561 0.678330 0.382815
vt 0.662880 0.800820 0.383163
vt 0.790779 0.693906 0.322195
vt 0.739771 0.693305 0.341927
vt 0.662880 0.383163 0.199180
vt 0.791561 0.382815 0.321671
vt 0.781218 0.693906 0.307865
vt 0.677805 0.693906 0.209221
vt 0.268802 0.693305 0.329981
vt 0.218782 0.693906 0.307865
vt 0.366917 0.495528 0.261100
vt 0.341927 0.693305 0.260229
vt 0.790779 0.693906 0.677805
vt 0.739771 0.693305 0.658073
vt 0.268802 0.693305 0.329982
vt 0.662880 0.383163 0.800820
vt 0.791561 0.382815 0.678330
vt 0.781218 0.693906 0.692135
vt 0.677805 0.693906 0.790779
vt 0.268802 0.693305 0.670019
vt 0.218782 0.693906 0.692135
vt 0.366917 0.495528 0.738900
vt 0.341927 0.693305 0.739771
vt 0.719603 0.954506 0.287292
vt 0.712708 0.954506 0.280397
vt 0.287292 0.954506 0.280397
vt 0.719603 0.954506 0.712708
vt 0.719604 0.954506 0.712708
vt 0.712708 0.954506 0.719604
vt 0.287292 0.954506 0.719604
vt 0.712708 0.954506 0.719603
vt 0.287292 0.954506 0.719603
vt 0.663975 0.145186 0.076104
vt 0.316208 0.145186 0.084312
vt 0.316208 0.048263 0.084312
vt 0.663975 0.048263 0.076104
vt 0.915688 0.145186 0.316208
vt 0.915688 0.048263 0.316208
vt 0.663975 0.145186 0.923896
vt 0.316208 0.145186 0.915688
vt 0.316208 0.048263 0.915688
vt 0.663975 0.048263 0.923896
vt 0.915688 0.145186 0.683792
vt 0.915688 0.048263 0.683792
# 124 texture coords

g Sphere001
usemtl 01___Default
s off
f 1/1/1 2/2/1 3/3/1 
f 1/1/2 3/3/2 4/4/2 
f 1/1/3 4/4/3 5/5/3 
f 1/1/4 5/5/4 6/6/4 
f 1/1/5 6/6/5 7/7/5 
f 1/1/6 7/7/6 8/8/6 
f 1/1/7 8/8/7 9/9/7 
f 1/1/8 9/9/8 2/2/8 
f 2/10/9 10/11/9 11/12/9 3/13/9 
f 4/10/10 12/11/10 13/12/10 5/13/10 
f 6/14/11 14/15/11 15/16/11 7/17/11 
f 8/14/12 16/15/12 17/16/12 9/17/12 
f 10/18/13 18/19/13 19/20/13 11/21/13 
f 11/21/14 19/20/14 20/22/14 12/23/14 
f 12/23/15 20/22/15 21/24/15 13/25/15 
f 13/25/16 21/24/16 22/26/16 14/27/16 
f 14/27/17 22/26/17 23/28/17 15/29/17 
f 15/29/18 23/28/18 24/30/18 16/31/18 
f 16/31/19 24/30/19 25/32/19 17/33/19 
f 17/33/20 25/32/20 18/19/20 10/18/20 
f 26/34/21 27/35/21 28/36/21 
f 26/34/22 29/37/22 27/35/22 
f 26/34/23 30/38/23 29/37/23 
f 26/34/24 31/39/24 30/38/24 
f 26/34/25 32/40/25 31/39/25 
f 26/34/26 33/41/26 32/40/26 
f 26/34/27 34/42/27 33/41/27 
f 26/34/28 28/36/28 34/42/28 
f 4/4/29 3/3/29 35/43/29 36/44/29 
f 6/6/30 5/5/30 37/45/30 38/46/30 
f 8/8/31 7/7/31 39/47/31 40/48/31 
f 2/2/32 9/9/32 41/49/32 42/50/32 
f 10/51/33 2/52/33 42/53/33 43/54/33 
f 3/55/34 11/56/34 44/57/34 35/58/34 
f 11/59/35 12/60/35 45/61/35 44/62/35 
f 12/63/36 4/64/36 36/65/36 45/66/36 
f 5/67/37 13/68/37 46/69/37 37/70/37 
f 13/71/38 14/72/38 47/73/38 46/74/38 
f 14/63/39 6/64/39 38/65/39 47/66/39 
f 7/67/40 15/68/40 48/69/40 39/70/40 
f 15/75/41 16/76/41 49/77/41 48/78/41 
f 16/51/42 8/52/42 40/53/42 49/54/42 
f 9/55/43 17/56/43 50/57/43 41/58/43 
f 17/79/44 10/80/44 43/81/44 50/82/44 
f 35/58/45 44/57/45 51/83/45 52/84/45 
f 44/85/46 45/86/46 53/87/46 51/88/46 
f 45/66/47 36/65/47 54/89/47 53/90/47 
f 36/65/48 35/91/48 52/92/48 54/89/48 
f 37/70/49 46/69/49 55/93/49 56/94/49 
f 46/85/50 47/86/50 57/87/50 55/88/50 
f 47/66/51 38/65/51 58/95/51 57/90/51 
f 38/65/52 37/91/52 56/92/52 58/95/52 
f 39/70/53 48/69/53 59/93/53 60/94/53 
f 48/96/54 49/97/54 61/98/54 59/99/54 
f 49/54/55 40/53/55 62/100/55 61/101/55 
f 40/53/56 39/102/56 60/103/56 62/100/56 
f 41/58/57 50/57/57 63/83/57 64/84/57 
f 50/96/58 43/97/58 65/98/58 63/99/58 
f 43/54/59 42/53/59 66/100/59 65/101/59 
f 42/53/60 41/102/60 64/103/60 66/100/60 
f 52/84/61 51/83/61 67/104/61 
f 51/88/62 53/87/62 67/105/62 
f 53/90/63 54/89/63 67/106/63 
f 54/89/64 52/92/64 67/106/64 
f 56/94/65 55/93/65 68/107/65 
f 55/88/66 57/87/66 68/105/66 
f 57/90/67 58/95/67 68/106/67 
f 58/95/68 56/92/68 68/106/68 
f 60/94/69 59/93/69 69/108/69 
f 59/99/70 61/98/70 69/109/70 
f 61/101/71 62/100/71 69/110/71 
f 62/100/72 60/103/72 69/110/72 
f 64/84/73 63/83/73 70/104/73 
f 63/99/74 65/98/74 70/111/74 
f 65/101/75 66/100/75 70/112/75 
f 66/100/76 64/103/76 70/112/76 
f 19/113/77 18/114/77 28/115/77 27/116/77 
f 20/117/78 19/113/78 27/116/78 29/118/78 
f 21/113/79 20/114/79 29/115/79 30/116/79 
f 22/117/80 21/113/80 30/116/80 31/118/80 
f 23/119/81 22/120/81 31/121/81 32/122/81 
f 24/123/82 23/119/82 32/122/82 33/124/82 
f 25/119/83 24/120/83 33/121/83 34/122/83 
f 18/123/84 25/119/84 34/122/84 28/124/84 
# 52 polygons - 32 triangles

