<?xml version="1.0" encoding="UTF-8" standalone="no"?>
<!-- Created with Inkscape (http://www.inkscape.org/) -->

<svg
   xmlns:dc="http://purl.org/dc/elements/1.1/"
   xmlns:cc="http://creativecommons.org/ns#"
   xmlns:rdf="http://www.w3.org/1999/02/22-rdf-syntax-ns#"
   xmlns:svg="http://www.w3.org/2000/svg"
   xmlns="http://www.w3.org/2000/svg"
   xmlns:sodipodi="http://sodipodi.sourceforge.net/DTD/sodipodi-0.dtd"
   xmlns:inkscape="http://www.inkscape.org/namespaces/inkscape"
   width="210mm"
   height="297mm"
   viewBox="0 0 744.09448819 1052.3622047"
   id="svg2"
   version="1.1"
   inkscape:version="0.91 r13725"
   inkscape:export-filename="/home/gato/devel/pyweek/20/gameowification/data/gameover.png"
   inkscape:export-xdpi="520.15424"
   inkscape:export-ydpi="520.15424"
   sodipodi:docname="gameover.svg">
  <defs
     id="defs4" />
  <sodipodi:namedview
     id="base"
     pagecolor="#ffffff"
     bordercolor="#666666"
     borderopacity="1.0"
     inkscape:pageopacity="0.0"
     inkscape:pageshadow="2"
     inkscape:zoom="3.092547"
     inkscape:cx="-756.50612"
     inkscape:cy="553.41112"
     inkscape:document-units="px"
     inkscape:current-layer="layer1"
     showgrid="false"
     inkscape:window-width="1112"
     inkscape:window-height="621"
     inkscape:window-x="2026"
     inkscape:window-y="260"
     inkscape:window-maximized="0" />
  <metadata
     id="metadata7">
    <rdf:RDF>
      <cc:Work
         rdf:about="">
        <dc:format>image/svg+xml</dc:format>
        <dc:type
           rdf:resource="http://purl.org/dc/dcmitype/StillImage" />
        <dc:title></dc:title>
      </cc:Work>
    </rdf:RDF>
  </metadata>
  <g
     inkscape:label="Layer 1"
     inkscape:groupmode="layer"
     id="layer1">
    <g
       style="font-style:normal;font-weight:normal;font-size:27.5px;line-height:125%;font-family:sans-serif;letter-spacing:0px;word-spacing:0px;fill:#000000;fill-opacity:1;stroke:none;stroke-width:1px;stroke-linecap:butt;stroke-linejoin:miter;stroke-opacity:1"
       id="text4136">
      <path
         d="m -766.9848,433.8035 0,-4.09546 9.39941,0 0,8.39233 q -2.69897,1.8396 -4.78027,2.51099 -2.06787,0.65796 -4.91455,0.65796 -3.50464,0 -5.72022,-1.19507 -2.20215,-1.19507 -3.42407,-3.55835 -1.2085,-2.36328 -1.2085,-5.42481 0,-3.22265 1.32935,-5.59936 1.32935,-2.39014 3.89404,-3.62549 2.00074,-0.95337 5.38452,-0.95337 3.26294,0 4.87427,0.59082 1.62476,0.59082 2.68555,1.8396 1.07422,1.23535 1.61133,3.14209 l -5.86792,1.04737 q -0.36255,-1.11451 -1.23535,-1.70533 -0.85938,-0.59082 -2.20215,-0.59082 -2.00074,0 -3.1958,1.39649 -1.18164,1.38305 -1.18164,4.39087 0,3.1958 1.19506,4.56543 1.2085,1.36962 3.35694,1.36962 1.02051,0 1.94702,-0.29541 0.92651,-0.29541 2.12158,-1.00708 l 0,-1.85302 -4.0686,0 z"
         style="font-style:normal;font-variant:normal;font-weight:normal;font-stretch:normal;font-family:'Arial Black';-inkscape-font-specification:'Arial Black, ';text-align:center;text-anchor:middle;fill:#800000;stroke:#000000;stroke-opacity:1"
         id="path4143" />
      <path
         d="m -741.83466,437.68411 -6.92871,0 -0.95337,3.24951 -6.21704,0 7.39868,-19.68505 6.63331,0 7.39868,19.68505 -6.36475,0 -0.9668,-3.24951 z m -1.27563,-4.25659 -2.17529,-7.07642 -2.16187,7.07642 4.33716,0 z"
         style="font-style:normal;font-variant:normal;font-weight:normal;font-stretch:normal;font-family:'Arial Black';-inkscape-font-specification:'Arial Black, ';text-align:center;text-anchor:middle;fill:#800000;stroke:#000000;stroke-opacity:1"
         id="path4145" />
      <path
         d="m -732.63666,421.24857 8.00293,0 3.08838,11.97753 3.07495,-11.97753 7.97608,0 0,19.68505 -4.96827,0 0,-15.0122 -3.85376,15.0122 -4.49829,0 -3.84033,-15.0122 0,15.0122 -4.98169,0 0,-19.68505 z"
         style="font-style:normal;font-variant:normal;font-weight:normal;font-stretch:normal;font-family:'Arial Black';-inkscape-font-specification:'Arial Black, ';text-align:center;text-anchor:middle;fill:#800000;stroke:#000000;stroke-opacity:1"
         id="path4147" />
      <path
         d="m -706.64056,421.24857 16.30127,0 0,4.20288 -10.20508,0 0,3.12866 9.46655,0 0,4.01489 -9.46655,0 0,3.88062 10.50049,0 0,4.458 -16.59668,0 0,-19.68505 z"
         style="font-style:normal;font-variant:normal;font-weight:normal;font-stretch:normal;font-family:'Arial Black';-inkscape-font-specification:'Arial Black, ';text-align:center;text-anchor:middle;fill:#800000;stroke:#000000;stroke-opacity:1"
         id="path4149" />
      <path
         d="m -774.77289,453.81844 q 0,-4.82055 2.68555,-7.5061 2.68555,-2.68555 7.47925,-2.68555 4.91455,0 7.57324,2.64527 2.65869,2.63183 2.65869,7.38525 0,3.45093 -1.16821,5.6665 -1.15479,2.20215 -3.35694,3.4375 -2.18872,1.22193 -5.46508,1.22193 -3.33008,0 -5.5188,-1.06079 -2.1753,-1.06079 -3.5315,-3.35694 -1.3562,-2.29614 -1.3562,-5.74707 z m 6.08277,0.0269 q 0,2.98096 1.10107,4.28345 1.1145,1.30249 3.02124,1.30249 1.96045,0 3.03467,-1.27564 1.07422,-1.27563 1.07422,-4.57886 0,-2.77954 -1.12793,-4.05517 -1.1145,-1.28906 -3.03467,-1.28906 -1.8396,0 -2.9541,1.30249 -1.1145,1.30249 -1.1145,4.3103 z"
         style="font-style:normal;font-variant:normal;font-weight:normal;font-stretch:normal;font-family:'Arial Black';-inkscape-font-specification:'Arial Black, ';text-align:center;text-anchor:middle;fill:#800000;stroke:#000000;stroke-opacity:1"
         id="path4151"
         inkscape:connector-curvature="0" />
      <path
         d="m -754.2016,443.96249 6.36475,0 4.43115,14.16626 4.36401,-14.16626 6.17676,0 -7.30469,19.68505 -6.59301,0 -7.43897,-19.68505 z"
         style="font-style:normal;font-variant:normal;font-weight:normal;font-stretch:normal;font-family:'Arial Black';-inkscape-font-specification:'Arial Black, ';text-align:center;text-anchor:middle;fill:#800000;stroke:#000000;stroke-opacity:1"
         id="path4153"
         inkscape:connector-curvature="0" />
      <path
         d="m -730.89105,443.96249 16.30127,0 0,4.20288 -10.20508,0 0,3.12866 9.46655,0 0,4.01489 -9.46655,0 0,3.88062 10.50049,0 0,4.458 -16.59668,0 0,-19.68505 z"
         style="font-style:normal;font-variant:normal;font-weight:normal;font-stretch:normal;font-family:'Arial Black';-inkscape-font-specification:'Arial Black, ';text-align:center;text-anchor:middle;fill:#800000;stroke:#000000;stroke-opacity:1"
         id="path4155"
         inkscape:connector-curvature="0" />
      <path
         d="m -710.92401,463.64754 0,-19.68505 10.13794,0 q 2.81982,0 4.3103,0.48339 1.49048,0.4834 2.40357,1.79932 0.91308,1.30249 0.91308,3.18237 0,1.63819 -0.69824,2.83326 -0.69824,1.18164 -1.92017,1.92016 -0.77881,0.46997 -2.13501,0.77881 1.08765,0.36255 1.58448,0.7251 0.33569,0.2417 0.96679,1.03393 0.64453,0.79224 0.85938,1.22193 l 2.94067,5.70678 -6.875,0 -3.24951,-6.01562 q -0.61768,-1.16821 -1.10107,-1.51733 -0.65796,-0.45655 -1.49048,-0.45655 l -0.53711,0 0,7.9895 -6.10962,0 z m 6.10962,-11.70898 2.5647,0 q 0.41625,0 1.61132,-0.26855 0.60425,-0.12085 0.98023,-0.61768 0.3894,-0.49683 0.3894,-1.14136 0,-0.95337 -0.60425,-1.46362 -0.60424,-0.51025 -2.26928,-0.51025 l -2.67212,0 0,4.00146 z"
         style="font-style:normal;font-variant:normal;font-weight:normal;font-stretch:normal;font-family:'Arial Black';-inkscape-font-specification:'Arial Black, ';text-align:center;text-anchor:middle;fill:#800000;stroke:#000000;stroke-opacity:1"
         id="path4157"
         inkscape:connector-curvature="0" />
    </g>
    <text
       xml:space="preserve"
       style="font-style:normal;font-weight:normal;font-size:27.5px;line-height:125%;font-family:sans-serif;letter-spacing:0px;word-spacing:0px;fill:#008000;fill-opacity:1;stroke:none;stroke-width:1px;stroke-linecap:butt;stroke-linejoin:miter;stroke-opacity:1;text-anchor:middle;text-align:center;"
       x="-725.97968"
       y="502.00677"
       id="text4178"
       sodipodi:linespacing="125%"
       inkscape:export-xdpi="373.29999"
       inkscape:export-ydpi="373.29999"><tspan
         sodipodi:role="line"
         x="-787.70026"
         y="502.00677"
         style="font-style:normal;font-variant:normal;font-weight:bold;font-stretch:condensed;font-family:'Liberation Sans Narrow';-inkscape-font-specification:'Liberation Sans Narrow Bold Condensed';stroke:#000000;stroke-opacity:1;text-anchor:middle;text-align:center;"
         id="tspan4182">LEVEL</tspan><tspan
         sodipodi:role="line"
         x="-787.70026"
         y="536.38177"
         style="font-style:normal;font-variant:normal;font-weight:bold;font-stretch:condensed;font-family:'Liberation Sans Narrow';-inkscape-font-specification:'Liberation Sans Narrow Bold Condensed';stroke:#000000;stroke-opacity:1;text-anchor:middle;text-align:center;"
         id="tspan4186">COMPLETE</tspan></text>
  </g>
</svg>
